<svg xmlns="http://www.w3.org/2000/svg" viewBox="0 0 24 24"><path fill="#5059C9" d="M16.5 2.5a2.5 2.5 0 1 1 0 5 2.5 2.5 0 0 1 0-5zm4 3a2 2 0 1 1 0 4 2 2 0 0 1 0-4zM22 9h-4.5a.5.5 0 0 0-.5.5v7a3 3 0 0 1-3 3h-1.5A4.5 4.5 0 0 0 17 15V9.5A.5.5 0 0 1 17.5 9H22z"/><path fill="#7B83EB" d="M13.5 7H5.5A1.5 1.5 0 0 0 4 8.5v8A4.5 4.5 0 0 0 8.5 21h.5a4.5 4.5 0 0 0 4.5-4.5v-8A1.5 1.5 0 0 0 13.5 7z"/><path fill="#fff" d="M11 11H8v5H7v-5H4v-1h7v1z" opacity=".9"/><circle cx="9.5" cy="4" r="2.5" fill="#7B83EB"/></svg>
